<?xml version="1.0" encoding="UTF-8"?>
<svg version="1.1" xmlns="http://www.w3.org/2000/svg" width="2000" height="2000">
<path d="M0 0 C660 0 1320 0 2000 0 C2000 660 2000 1320 2000 2000 C1340 2000 680 2000 0 2000 C0 1340 0 680 0 0 Z " fill="#FEFEFE" transform="translate(0,0)"/>
<path d="M0 0 C53.9041652 -0.09158466 107.80832254 -0.16205354 161.71255026 -0.20426132 C168.07854926 -0.20926406 174.4445481 -0.21444135 180.81054688 -0.21972656 C182.71155527 -0.22130043 182.71155527 -0.22130043 184.65096788 -0.22290608 C205.16305552 -0.24030437 225.67509825 -0.27183891 246.18715926 -0.30861118 C267.23935508 -0.34603659 288.2915274 -0.36823925 309.34375513 -0.37635398 C322.3308027 -0.38183841 335.31772333 -0.39915154 348.30473183 -0.43166587 C357.21421594 -0.45283347 366.12363456 -0.45919494 375.03314199 -0.45400551 C380.17103946 -0.45144726 385.30871533 -0.45532861 390.44657326 -0.4768219 C395.15736623 -0.49638403 399.86778996 -0.49720766 404.57860045 -0.48359558 C406.2760194 -0.48191491 407.97346203 -0.48690687 409.67083485 -0.49953273 C427.60560924 -0.62510109 443.40109578 3.03463816 456.75 15.7578125 C457.4925 16.49773438 458.235 17.23765625 459 18 C459.86625 18.83144531 459.86625 18.83144531 460.75 19.6796875 C470.76952399 30.16887668 473.30739871 44.26540668 473.26069641 58.15655518 C473.26452196 59.36773884 473.26834751 60.5789225 473.27228898 61.82680869 C473.28079679 65.1719097 473.28039505 68.51678989 473.27610838 71.86188436 C473.27363551 75.47619729 473.28266237 79.0904847 473.29014587 82.70478821 C473.30288011 89.77971384 473.30468809 96.8546015 473.30234561 103.92953667 C473.30056058 109.68296597 473.30231608 115.43638378 473.30657005 121.18981171 C473.30716524 122.0095454 473.30776043 122.82927909 473.30837366 123.6738532 C473.30958545 125.33932116 473.31079958 127.00478911 473.31201603 128.67025706 C473.32288702 144.2817553 473.32073139 159.89323193 473.31463119 175.50473139 C473.30946453 189.77100044 473.32071161 204.03720116 473.33972941 218.30345669 C473.35912602 232.96681528 473.36736047 247.63014157 473.36360615 262.29351306 C473.36169661 270.51988902 473.36415746 278.74620686 473.37832069 286.97257233 C473.39025885 293.97725141 473.3916123 300.98183661 473.37953053 307.98651704 C473.37365838 311.55664006 473.37249589 315.12659155 473.38453293 318.69670296 C473.39746105 322.57638947 473.38688746 326.45581867 473.3742218 330.33551025 C473.38159609 331.45071084 473.38897037 332.56591143 473.39656812 333.71490598 C473.29064673 349.19959757 468.49685315 363.73197557 457.6875 375 C442.99828614 388.55621631 426.18146531 391.78229753 406.82102966 391.60127258 C405.05331365 391.60345881 403.28559926 391.6078474 401.51789337 391.61421841 C396.71042057 391.62529332 391.90351452 391.60554582 387.0961138 391.58032811 C381.89322988 391.55858838 376.69037389 391.56605302 371.48745728 391.56983948 C362.48966941 391.57245198 353.49206384 391.55686174 344.49432182 391.52865028 C331.4853804 391.48788885 318.47652647 391.47498015 305.46752811 391.46871033 C284.35761535 391.45778693 263.24779959 391.4245659 242.13793945 391.37719727 C221.64054853 391.33125099 201.14318403 391.2958839 180.64575195 391.2746582 C179.38074513 391.27334459 178.11573831 391.27203097 176.81239795 391.27067754 C170.46576862 391.26415201 164.1191391 391.25783355 157.77250946 391.25161803 C105.18160596 391.19984593 52.59080773 391.11183404 0 391 C8.02173255 382.94632176 16.36651747 375.43498595 25.21875 368.3125 C28.24019336 365.80028867 31.12440078 363.17597543 34 360.5 C38.61001639 356.2104224 43.37783236 352.19589103 48.28515625 348.24609375 C51.10673495 345.9116941 53.80590712 343.48009402 56.5 341 C60.05670244 337.72581577 63.67161811 334.59357567 67.4375 331.5625 C71.43223986 328.34056899 75.24554349 324.99344505 79 321.5 C83.61004336 317.21044887 88.37782956 313.19589328 93.28515625 309.24609375 C96.10673495 306.9116941 98.80590712 304.48009402 101.5 302 C105.05670244 298.72581577 108.67161811 295.59357567 112.4375 292.5625 C116.43223986 289.34056899 120.24554349 285.99344505 124 282.5 C128.61004336 278.21044887 133.37782956 274.19589328 138.28515625 270.24609375 C141.10673495 267.9116941 143.80590712 265.48009402 146.5 263 C150.05670244 259.72581577 153.67161811 256.59357567 157.4375 253.5625 C161.43223986 250.34056899 165.24554349 246.99344505 169 243.5 C173.61004336 239.21044887 178.37782956 235.19589328 183.28515625 231.24609375 C186.10673495 228.9116941 188.80590712 226.48009402 191.5 224 C195.05670244 220.72581577 198.67161811 217.59357567 202.4375 214.5625 C207.1496176 210.76568582 211.61651758 206.7655058 216.02905273 202.62915039 C218.27966666 200.52814486 220.42875626 198.71416249 223 197 C223.33 196.01 223.66 195.02 224 194 C223.44441406 193.76410156 222.88882812 193.52820313 222.31640625 193.28515625 C219.43624409 191.6872248 217.33630924 189.694995 214.9375 187.4375 C211.24636541 184.0046517 207.49589741 180.72061908 203.5625 177.5625 C199.02763839 173.90493736 194.74463817 170.05382973 190.48291016 166.08837891 C186.37220724 162.28601193 182.07724416 158.75729408 177.71484375 155.24609375 C173.93432714 152.11832821 170.35519125 148.78726117 166.74609375 145.46484375 C164.08124834 143.07292703 161.35168175 140.80745116 158.5625 138.5625 C154.02763839 134.90493736 149.74463817 131.05382973 145.48291016 127.08837891 C141.37220724 123.28601193 137.07724416 119.75729408 132.71484375 116.24609375 C128.93432714 113.11832821 125.35519125 109.78726117 121.74609375 106.46484375 C119.08124834 104.07292703 116.35168175 101.80745116 113.5625 99.5625 C109.02763839 95.90493736 104.74463817 92.05382973 100.48291016 88.08837891 C96.37220724 84.28601193 92.07724416 80.75729408 87.71484375 77.24609375 C83.93432714 74.11832821 80.35519125 70.78726117 76.74609375 67.46484375 C74.08124834 65.07292703 71.35168175 62.80745116 68.5625 60.5625 C64.02763839 56.90493736 59.74463817 53.05382973 55.48291016 49.08837891 C51.37220724 45.28601193 47.07724416 41.75729408 42.71484375 38.24609375 C38.93432714 35.11832821 35.35519125 31.78726117 31.74609375 28.46484375 C29.08124834 26.07292703 26.35168175 23.80745116 23.5625 21.5625 C18.44581563 17.43543224 13.62762444 13.0604299 8.82421875 8.578125 C6.79641547 6.72701827 4.76708869 4.9682426 2.64453125 3.234375 C1.77183594 2.49703125 0.89914062 1.7596875 0 1 C0 0.67 0 0.34 0 0 Z " fill="#303030" transform="translate(911,583)"/>
<path d="M0 0 C94.38 0 188.76 0 286 0 C282.50063607 4.19923672 280.05825589 6.97418055 275.9375 10.1875 C271.80600144 13.48715321 267.86294382 16.89667611 264 20.5 C259.39055984 24.79016515 254.62211409 28.80415207 249.71484375 32.75390625 C246.89326505 35.0883059 244.19409288 37.51990598 241.5 40 C237.05272888 44.09351091 232.45282537 47.92442499 227.75 51.71875 C223.96094593 54.86194258 220.36730648 58.20158595 216.74609375 61.53515625 C214.08124834 63.92707297 211.35168175 66.19254884 208.5625 68.4375 C204.56776014 71.65943101 200.75445651 75.00655495 197 78.5 C192.38995664 82.78955113 187.62217044 86.80410672 182.71484375 90.75390625 C179.89326505 93.0883059 177.19409288 95.51990598 174.5 98 C170.05272888 102.09351091 165.45282537 105.92442499 160.75 109.71875 C157.91900422 112.06718968 155.20616402 114.50909902 152.5 117 C148.13321476 121.01893321 143.64062934 124.81057155 138.99609375 128.50390625 C136.05538422 130.81051766 136.05538422 130.81051766 134.14448547 133.17666626 C129.90462856 137.78723871 126.43697154 140.45439628 120.04120159 141.00276756 C116.09990176 141.15003661 112.17658817 141.10495977 108.234375 141.01953125 C106.51101639 141.01287984 104.78764147 141.00966288 103.06427002 141.00968933 C99.46272388 141.00043271 95.86321181 140.96141544 92.26220703 140.89868164 C87.68523218 140.8196686 83.11027033 140.79703019 78.53268051 140.79483509 C74.97535217 140.78981856 71.41843995 140.76339855 67.86127472 140.72995567 C66.17589887 140.71488927 64.49047822 140.70411104 62.80504608 140.69800758 C47.11362237 140.60781156 34.29506914 137.99606475 21 129 C20.34515625 128.56171875 19.6903125 128.1234375 19.015625 127.671875 C8.63308963 119.7659077 2.09461788 106.56770726 0 94 C0 62.98 0 31.96 0 0 Z " fill="#303030" transform="translate(610,834)"/>
<path d="M0 0 C0.74383942 -0.01460266 1.48767883 -0.02920532 2.25405884 -0.04425049 C9.10113555 -0.17009771 15.94932089 -0.23900986 22.79731178 -0.29209328 C27.38787577 -0.32781936 31.97668214 -0.38107249 36.56640625 -0.47753906 C41.02035563 -0.5708404 45.47275251 -0.61908775 49.92762375 -0.63648605 C51.61571719 -0.65049432 53.30376224 -0.67993785 54.99129105 -0.72578812 C63.62750048 -0.94894915 69.87468831 -1.03569617 76.87597656 4.64160156 C78.43300523 6.14600461 79.96234747 7.68026557 81.44677734 9.25634766 C82.46966821 10.18233287 83.49925086 11.10108658 84.54052734 12.00634766 C85.73162109 13.12009766 85.73162109 13.12009766 86.94677734 14.25634766 C90.52470197 17.54966465 94.162174 20.70286087 97.94677734 23.75634766 C102.70417403 27.5947018 107.20461653 31.65257124 111.70068359 35.79150391 C114.36552901 38.18342063 117.0950956 40.44889649 119.88427734 42.69384766 C124.41913896 46.3514103 128.70213917 50.20251793 132.96386719 54.16796875 C137.0745701 57.97033572 141.36953318 61.49905358 145.73193359 65.01025391 C148.5535123 67.34465355 151.25268446 69.77625364 153.94677734 72.25634766 C157.52470197 75.54966465 161.162174 78.70286087 164.94677734 81.75634766 C169.70417403 85.5947018 174.20461653 89.65257124 178.70068359 93.79150391 C181.36552901 96.18342063 184.0950956 98.44889649 186.88427734 100.69384766 C191.41913896 104.3514103 195.70213917 108.20251793 199.96386719 112.16796875 C204.06630679 115.96269222 208.35295104 119.48418472 212.70458984 122.99072266 C218.89822905 128.10797443 224.76772285 133.57729316 230.44677734 139.25634766 C136.39677734 139.25634766 42.34677734 139.25634766 -54.55322266 139.25634766 C-54.55322266 37.4087726 -54.55322266 37.4087726 -47.11572266 26.38134766 C-46.56013672 25.53830078 -46.00455078 24.69525391 -45.43212891 23.82666016 C-34.5750417 8.97434543 -18.47658022 0.28067931 0 0 Z " fill="#303030" transform="translate(664.55322265625,582.74365234375)"/>
<path d="M0 0 C0.83265381 0.00523682 1.66530762 0.01047363 2.52319336 0.01586914 C3.42231445 0.0190918 4.32143555 0.02231445 5.24780273 0.02563477 C6.66609375 0.03820313 6.66609375 0.03820313 8.11303711 0.05102539 C9.53712891 0.05779297 9.53712891 0.05779297 10.98999023 0.06469727 C13.34356776 0.07652429 15.69702188 0.09300514 18.05053711 0.11352539 C23.46687314 10.77804904 28.61508113 21.53142666 33.55053711 32.42602539 C34.2429314 33.94830369 34.93564764 35.47043558 35.62866211 36.99243164 C37.06088365 40.13852034 38.49175183 43.28521904 39.92163086 46.43237305 C42.95611357 53.10840782 46.00761853 59.77665081 49.05859375 66.44515991 C50.7233431 70.08426388 52.38687579 73.72392393 54.05053711 77.36352539 C54.71719801 78.82186136 55.38386467 80.2801947 56.05053711 81.73852539 C60.0505371 90.48852538 60.0505371 90.48852538 61.05047607 92.67590332 C61.71733465 94.13464883 62.38420478 95.59338906 63.05108643 97.05212402 C64.71491141 100.69160794 66.37853753 104.3311825 68.04174805 107.97094727 C71.07536247 114.60917442 74.11060043 121.24663904 77.15296936 127.88085938 C83.8255769 142.43135887 90.47972438 156.98863763 96.98803711 171.61352539 C97.49044922 172.74145508 97.99286133 173.86938477 98.51049805 175.03149414 C98.96585938 176.05887695 99.4212207 177.08625977 99.89038086 178.14477539 C100.48387329 179.48378906 100.48387329 179.48378906 101.08935547 180.84985352 C102.05053711 183.11352539 102.05053711 183.11352539 103.05053711 186.11352539 C96.12053711 186.11352539 89.19053711 186.11352539 82.05053711 186.11352539 C77.32004595 176.97507655 72.99649233 167.69744905 68.80053711 158.30102539 C68.02178223 156.56695435 68.02178223 156.56695435 67.22729492 154.79785156 C66.48237793 153.11912964 66.48237793 153.11912964 65.72241211 151.40649414 C65.27994141 150.41157959 64.8374707 149.41666504 64.3815918 148.39160156 C62.7488683 144.37058573 61.42292023 140.23067476 60.05053711 136.11352539 C25.73053711 136.11352539 -8.58946289 136.11352539 -43.94946289 136.11352539 C-44.93946289 139.08352539 -45.92946289 142.05352539 -46.94946289 145.11352539 C-47.81257363 147.15529778 -48.71201412 149.18231349 -49.65649414 151.18774414 C-50.15818115 152.26161377 -50.65986816 153.3354834 -51.17675781 154.44189453 C-51.96143433 156.10466431 -51.96143433 156.10466431 -52.76196289 157.80102539 C-56.64187319 166.10093885 -60.44981425 174.40493266 -63.96118164 182.86743164 C-64.94946289 185.11352539 -64.94946289 185.11352539 -65.94946289 186.11352539 C-67.51119034 186.20038142 -69.07675633 186.22054759 -70.64086914 186.21118164 C-71.58510742 186.20795898 -72.5293457 186.20473633 -73.50219727 186.20141602 C-74.49541992 186.19303711 -75.48864258 186.1846582 -76.51196289 186.17602539 C-77.50905273 186.17151367 -78.50614258 186.16700195 -79.53344727 186.16235352 C-82.00551138 186.15052546 -84.47745807 186.13404388 -86.94946289 186.11352539 C-80.51551255 170.52133943 -73.42530727 155.2495286 -66.31005859 139.96044922 C-61.26446748 129.11718497 -56.25843676 118.25803376 -51.32446289 107.36352539 C-46.06903012 95.7633481 -40.77358775 84.18234064 -35.44946289 72.61352539 C-29.92389801 60.60425684 -24.41853855 48.58613398 -18.94946289 36.55102539 C-18.63861755 35.86717773 -18.32777222 35.18333008 -18.00750732 34.47875977 C-15.00681188 27.87552834 -12.01427937 21.26882742 -9.05102539 14.64868164 C-8.62563477 13.69872314 -8.20024414 12.74876465 -7.76196289 11.77001953 C-6.99665403 10.0579871 -6.23346846 8.34500316 -5.47290039 6.63085938 C-2.57953879 0.15021735 -2.57953879 0.15021735 0 0 Z " fill="#333333" transform="translate(762.949462890625,1028.886474609375)"/>
<path d="M0 0 C5.61 0 11.22 0 17 0 C17.8971875 1.56363281 18.794375 3.12726563 19.71875 4.73828125 C26.40520122 16.37067578 33.13943831 27.9691901 40 39.5 C45.29508845 48.40043304 50.52617539 57.3338208 55.6875 66.3125 C60.71107749 75.05133671 65.78279034 83.75820771 70.92626953 92.42700195 C74.1186325 97.80940614 77.29254157 103.20208636 80.44921875 108.60546875 C80.83148621 109.25941116 81.21375366 109.91335358 81.60760498 110.58711243 C84.66128928 115.81136441 84.66128928 115.81136441 86.17718506 118.41323853 C87.23240988 120.22434767 88.28985705 122.0341436 89.34765625 123.84375 C89.95617432 124.88724609 90.56469238 125.93074219 91.19165039 127.00585938 C93.04345484 130.07194954 94.99141758 133.03514745 97 136 C97.41137207 135.27748047 97.82274414 134.55496094 98.24658203 133.81054688 C107.17699578 118.13342465 116.1706434 102.49696208 125.28662109 86.92675781 C128.17381178 81.9949194 131.05647417 77.06044184 133.9375 72.125 C134.51258301 71.13983398 135.08766602 70.15466797 135.68017578 69.13964844 C139.97612209 61.77277643 144.24280851 54.38932308 148.5 47 C153.50035869 38.3213363 158.51767499 29.65290114 163.5625 21 C164.40167969 19.55947266 164.40167969 19.55947266 165.2578125 18.08984375 C166.32105998 16.26823181 167.40147095 14.45650724 168.50048828 12.65625 C170.07055702 10.02058499 170.07055702 10.02058499 171.13623047 7.09375 C172.33984375 4.3125 172.33984375 4.3125 176 0 C181.61 0 187.22 0 193 0 C193 61.38 193 122.76 193 186 C186.73 186 180.46 186 174 186 C173.67 137.82 173.34 89.64 173 40 C168.05 48.58 163.1 57.16 158 66 C155.34416193 70.50744348 152.68398182 75.009657 150 79.5 C144.16289399 89.30885576 138.41735513 99.16688434 132.73022461 109.06347656 C127.20522609 118.66951425 121.60547508 128.23060948 115.98461914 137.78076172 C111.25944537 145.81831614 106.60858839 153.89526756 102 162 C98.17054119 162.63107348 94.81036276 162.82932955 91 162 C87.86543961 159.12888108 86.24103272 155.59175452 84.375 151.8125 C83.18827535 149.60174817 81.9993764 147.39216246 80.80859375 145.18359375 C80.18700333 144.00001254 79.56575229 142.81625304 78.94482422 141.63232422 C75.99138766 136.05561514 72.74844839 130.6467671 69.53009033 125.2203064 C68.06691598 122.74911027 66.6151778 120.27128376 65.16345215 117.79335022 C60.78245511 110.31595463 56.37361047 102.85508102 51.95947266 95.3972168 C46.70160565 86.50814048 41.48045152 77.59763342 36.26171875 68.68554688 C30.852985 59.44997738 25.42657857 50.22518357 20 41 C19.67 88.85 19.34 136.7 19 186 C12.73 186 6.46 186 0 186 C0 124.62 0 63.24 0 0 Z " fill="#333333" transform="translate(885,1029)"/>
<path d="M0 0 C13.11921076 9.45246506 22.86620022 23.99960986 25.78125 40.00390625 C26.86166462 51.64942686 26.52809343 63.18586495 21.78125 74.00390625 C21.38035156 74.93074219 20.97945312 75.85757813 20.56640625 76.8125 C13.12342704 92.02206621 -0.46254225 103.20926786 -16.21875 109.00390625 C-29.65413801 113.04729124 -45.34923819 112.65091349 -58.21875 107.00390625 C-59.14558594 106.60300781 -60.07242187 106.20210937 -61.02734375 105.7890625 C-76.23690996 98.34608329 -87.42411161 84.760114 -93.21875 69.00390625 C-98.05990168 52.91769346 -95.95924328 36.19308359 -88.53125 21.31640625 C-79.80857101 6.27579687 -65.99482825 -4.14341109 -49.44921875 -9.1328125 C-32.10744172 -13.19328581 -14.92046837 -9.28518395 0 0 Z " fill="#FDFDFD" transform="translate(1240.21875,727.99609375)"/>
<path d="M0 0 C18 0 18 0 22.109375 3.12109375 C23.4921875 5.1796875 23.4921875 5.1796875 24.75 7.4375 C25.7820386 9.01202043 26.81864315 10.58355584 27.859375 12.15234375 C28.37048828 12.9604248 28.88160156 13.76850586 29.40820312 14.60107422 C31.98104565 18.47848996 34.98619229 21.96196187 38 25.5 C42.64441924 31.06344042 47.13129643 36.71781416 51.5 42.5 C56.47486627 49.08232917 61.63290168 55.48212202 66.90356445 61.8293457 C72.39877144 68.45382042 77.71322909 75.20887931 83 82 C84.78909123 84.29368986 86.58079507 86.58530806 88.375 88.875 C88.82311035 89.44686035 89.2712207 90.0187207 89.73291016 90.60791016 C93.29236882 95.13435299 96.92000049 99.60275257 100.5625 104.0625 C105.28193428 109.84080823 109.86527936 115.6979608 114.38671875 121.6328125 C117.96930992 126.29088211 121.70890657 130.8240474 125.44726562 135.35742188 C125.96611328 135.98970703 126.48496094 136.62199219 127.01953125 137.2734375 C127.47432861 137.82435059 127.92912598 138.37526367 128.39770508 138.94287109 C130.69346902 141.89031997 132.82847148 144.95986007 135 148 C135.33 99.16 135.66 50.32 136 0 C142.6 0 149.2 0 156 0 C156 61.38 156 122.76 156 186 C150.39 186 144.78 186 139 186 C132.43691908 179.15763904 132.43691908 179.15763904 130.53125 175.984375 C128.13233875 172.14834509 125.45901999 168.64660831 122.625 165.125 C121.71158422 163.96275434 120.79883442 162.799985 119.88671875 161.63671875 C116.77834135 157.70316546 113.60881853 153.82035011 110.4375 149.9375 C105.71164336 144.15132846 101.12332089 138.28513519 96.59375 132.34375 C93.63788937 128.50113119 90.56892193 124.7524869 87.5 121 C82.74731214 115.18870881 78.13348007 109.29868468 73.58203125 103.328125 C70.69352598 99.57295545 67.69004287 95.91414272 64.6875 92.25 C60.1984943 86.76944421 55.83626783 81.21234571 51.5625 75.5625 C46.60241882 69.00923533 41.47772412 62.61915966 36.19555664 56.32250977 C30.92556186 50.01270969 26.03109456 43.54042293 21 37 C20.67 86.17 20.34 135.34 20 186 C13.4 186 6.8 186 0 186 C0 124.62 0 63.24 0 0 Z " fill="#343434" transform="translate(1402,1257)"/>
<path d="M0 0 C1.48783404 1.28167339 2.96796024 2.5723912 4.4375 3.875 C5.05753906 4.36484375 5.67757812 4.8546875 6.31640625 5.359375 C22.81150078 18.49640778 33.70382591 41.93371909 36.2265625 62.62207031 C38.68899113 88.92217607 32.88029336 113.98535024 16.5625 135.0625 C15.20610238 136.6824263 13.83121066 138.28706225 12.4375 139.875 C11.78394531 140.62394531 11.13039063 141.37289063 10.45703125 142.14453125 C-3.24104543 156.81920626 -21.33355063 164.4058163 -40.5625 168.875 C-41.31297607 169.0507959 -42.06345215 169.2265918 -42.83666992 169.40771484 C-59.06117596 172.18905874 -79.09515234 171.26005271 -94.5625 165.875 C-95.19317383 165.66601074 -95.82384766 165.45702148 -96.47363281 165.24169922 C-120.38198467 157.21008127 -139.16239651 140.05511963 -150.67822266 117.71142578 C-161.9591729 94.28367654 -162.48685439 67.1026509 -154.3125 42.6875 C-150.07191936 31.56072275 -144.51839614 21.74617622 -136.5625 12.875 C-135.76199219 11.98039062 -134.96148437 11.08578125 -134.13671875 10.1640625 C-100.76865015 -25.13193895 -38.52546083 -30.60927025 0 0 Z M-114.5625 17.875 C-115.30757813 18.52855469 -116.05265625 19.18210937 -116.8203125 19.85546875 C-130.60659145 32.68371815 -138.86620158 51.50029949 -139.84765625 70.23828125 C-140.56172227 93.88377698 -133.14089422 114.25623042 -117.3125 131.6875 C-108.88810385 139.5172329 -98.30542799 145.0316249 -87.5625 148.875 C-86.6034375 149.22691406 -85.644375 149.57882812 -84.65625 149.94140625 C-64.41686949 156.04899708 -40.65001093 152.609464 -22.15576172 143.07788086 C-4.40961304 133.42689315 7.63441041 117.63886711 13.47265625 98.43359375 C19.20520275 77.29047691 17.09220464 55.10583349 6.4375 35.875 C-4.32050185 18.22027083 -20.42129928 6.35212137 -40.30859375 0.8359375 C-66.51355707 -4.81145641 -94.23984852 -0.58935455 -114.5625 17.875 Z " fill="#343434" transform="translate(577.5625,1274.125)"/>
<path d="M0 0 C1.55810065 1.31409141 3.10084751 2.64668072 4.625 4 C5.30949219 4.60199219 5.99398438 5.20398437 6.69921875 5.82421875 C23.19862342 21.28633276 32.97635176 43.69185869 34.03515625 66.07421875 C34.87186367 95.54387594 27.40133668 119.70517852 7.12109375 141.55859375 C-5.6764024 154.07570658 -21.25571266 161.52051102 -38.375 166 C-39.00696289 166.18546387 -39.63892578 166.37092773 -40.29003906 166.56201172 C-47.85542091 168.57072632 -55.6041102 168.39743135 -63.375 168.375 C-64.11176971 168.37412384 -64.84853943 168.37324768 -65.6076355 168.37234497 C-92.42254809 168.26693958 -114.86323076 159.63710372 -134.375 141 C-134.97828125 140.47148438 -135.5815625 139.94296875 -136.203125 139.3984375 C-146.47268386 130.04066191 -153.17233813 117.05352096 -157.375 104 C-157.7875 102.75476562 -158.2 101.50953125 -158.625 100.2265625 C-165.88538262 75.82851227 -162.08279678 49.25800915 -150.375 27 C-138.05231235 5.30475967 -118.23806734 -10.0264484 -94.38671875 -17.19140625 C-93.39285156 -17.45824219 -92.39898438 -17.72507812 -91.375 -18 C-90.30894531 -18.29777344 -89.24289062 -18.59554688 -88.14453125 -18.90234375 C-57.84999417 -26.19858631 -24.5320128 -19.12219681 0 0 Z M-102.375 6 C-103.20128906 6.42925781 -104.02757812 6.85851563 -104.87890625 7.30078125 C-121.97699601 16.79972001 -133.33744015 32.75374879 -139.40625 51.12109375 C-144.73501882 71.67139203 -142.31695418 94.20395116 -132.2890625 112.8515625 C-129.38187615 117.63358739 -126.12162424 121.85119576 -122.375 126 C-121.39466797 127.13695312 -121.39466797 127.13695312 -120.39453125 128.296875 C-108.86959568 140.83808068 -91.48763932 149.14034082 -74.46923828 150.17700195 C-51.3465138 150.64557969 -29.59667396 148.93182984 -11.8125 132.5 C-9.95351817 130.70419044 -8.16516148 128.86692185 -6.375 127 C-5.34439453 125.94619141 -5.34439453 125.94619141 -4.29296875 124.87109375 C11.52477889 107.81273845 14.62644463 86.25803994 13.81152344 63.94873047 C12.63074787 45.28196702 2.14459492 27.94617184 -11.125 15.3125 C-28.35698579 0.41839033 -49.69595235 -4.26151833 -71.96289062 -3.19970703 C-82.64090065 -2.31563697 -92.96241954 0.92939978 -102.375 6 Z " fill="#343434" transform="translate(1336.375,1276)"/>
<path d="M0 0 C6.93 0 13.86 0 21 0 C21.00879936 2.18296692 21.00879936 2.18296692 21.01777649 4.41003418 C21.07519135 18.17946483 21.14787747 31.94875751 21.23571491 45.71802521 C21.28048023 52.79556275 21.31993792 59.87305213 21.34643555 66.95068359 C21.36957314 73.1271026 21.40314302 79.30336669 21.44870156 85.47966242 C21.4724241 88.7431426 21.48973098 92.00644211 21.49761391 95.27000427 C21.12368055 120.18357285 21.12368055 120.18357285 28.75 143.5625 C29.10143066 144.22813965 29.45286133 144.8937793 29.81494141 145.57958984 C35.74266044 156.4065593 45.08121781 162.76794072 56.796875 166.45703125 C71.30205398 170.03188919 90.30097806 170.44042838 104 164 C105.24716797 163.42185547 105.24716797 163.42185547 106.51953125 162.83203125 C118.05107654 156.92283142 125.24485136 148.04109958 129.3125 135.6875 C133.45500955 120.02666136 133.33927558 104.5699116 133.4140625 88.4765625 C133.43280001 85.91823724 133.45237529 83.35991799 133.4727478 80.80160522 C133.51860417 74.79200581 133.55610878 68.78241223 133.58942068 62.772735 C133.62787597 55.92121477 133.67722328 49.06978583 133.72740483 42.21834302 C133.83023682 28.14562894 133.91926654 14.07285666 134 0 C140.6 0 147.2 0 154 0 C154.04654415 14.30937026 154.08198069 28.61872221 154.10362434 42.92815304 C154.11401739 49.57412214 154.12809388 56.22002511 154.15087891 62.8659668 C154.1727681 69.29155038 154.18460223 75.71708408 154.18975449 82.1427021 C154.19342159 84.5820246 154.20058161 87.02134468 154.21146011 89.46064568 C154.33317504 117.91010568 153.34619253 147.44888402 132 169 C115.65013167 183.1371042 97.91178718 187.33365262 76.9375 187.5 C76.26344116 187.51053406 75.58938232 187.52106812 74.89489746 187.53192139 C61.76540273 187.69026665 49.41243754 185.45375787 37.6875 179.3125 C37.02435791 178.9721875 36.36121582 178.631875 35.67797852 178.28125 C29.62215529 175.03850664 24.7447334 170.96521358 20 166 C19.05253906 165.08154297 19.05253906 165.08154297 18.0859375 164.14453125 C-1.48183023 143.93025137 -0.31038794 112.66374215 -0.1953125 86.62109375 C-0.19157417 84.11190403 -0.18873108 81.60271283 -0.18673706 79.09352112 C-0.17916512 72.54570357 -0.1595732 65.99797725 -0.1373291 59.45019531 C-0.11562114 52.7461118 -0.10770563 46.04199954 -0.09765625 39.33789062 C-0.0763202 26.22521425 -0.04119184 13.11262904 0 0 Z " fill="#363636" transform="translate(785,1257)"/>
<path d="M0 0 C-0.62816498 3.94949704 -1.8645529 7.19892028 -3.5625 10.8125 C-4.01753906 11.78832031 -4.47257812 12.76414062 -4.94140625 13.76953125 C-5.46541016 14.87361328 -5.46541016 14.87361328 -6 16 C-10.10612201 14.73193291 -13.72666261 13.17065763 -17.5 11.125 C-36.62365386 1.43316059 -61.3742972 -1.57383182 -82 5 C-92.0897047 9.18840067 -99.06679127 13.4520614 -103.82421875 23.5078125 C-106.38103692 31.10181728 -106.33435207 39.54839462 -103.4375 47.0625 C-97.65339745 57.62391592 -85.62354728 61.7381661 -74.65087891 64.99365234 C-66.98536583 67.12438088 -59.27827877 69.0920789 -51.57226562 71.06982422 C-30.79831488 76.47911566 -10.37347964 81.90646873 3 100 C8.85620697 110.39222856 10.02511972 123.78676785 6.875 135.3125 C1.37579505 150.53122996 -7.75773899 159.57356031 -22 167 C-25.93948274 168.64999401 -29.85885959 169.96085669 -34 171 C-34.66273926 171.17515137 -35.32547852 171.35030273 -36.00830078 171.53076172 C-44.10057925 173.43692776 -52.23668919 173.39626037 -60.5 173.375 C-61.25534027 173.37478851 -62.01068054 173.37457703 -62.78890991 173.37435913 C-74.29366071 173.3421731 -85.01570118 172.62197784 -96 169 C-97.155 168.62617187 -98.31 168.25234375 -99.5 167.8671875 C-110.79866659 163.84336992 -121.44036347 158.50791668 -130 150 C-129.40165275 145.85701333 -127.99335715 142.81805623 -125.9375 139.1875 C-125.38964844 138.21167969 -124.84179688 137.23585938 -124.27734375 136.23046875 C-123.64505859 135.12638672 -123.64505859 135.12638672 -123 134 C-121.989375 134.825 -120.97875 135.65 -119.9375 136.5 C-102.89768463 149.1898625 -82.84843223 155.42669823 -61.6875 155.3125 C-60.04164917 155.30404053 -60.04164917 155.30404053 -58.36254883 155.29541016 C-44.93180104 155.09469912 -31.38669759 153.20778458 -20.8046875 144.11328125 C-14.02858458 136.89772395 -12.37714371 129.97582755 -12.66015625 120.18359375 C-13.37316581 113.50425133 -15.71829639 108.88531598 -20.5625 104.25 C-32.94397589 94.43954096 -50.43001774 91.4318925 -65.38864136 87.54360962 C-109.90869995 75.96534038 -109.90869995 75.96534038 -121.30859375 57.9296875 C-126.96999412 47.35344505 -128.07843685 33.63920964 -125.125 22.03515625 C-122.67556704 14.61434125 -119.38493657 8.65759159 -114 3 C-113.45085937 2.39929687 -112.90171875 1.79859375 -112.3359375 1.1796875 C-103.38929914 -7.60930085 -90.17682186 -12.90413166 -78 -15 C-76.97390625 -15.18046875 -75.9478125 -15.3609375 -74.890625 -15.546875 C-49.16243542 -18.54333081 -21.77064073 -14.75798242 0 0 Z " fill="#343434" transform="translate(396,1271)"/>
<path d="M0 0 C-1.74807129 5.46737191 -3.65794081 10.75824848 -6 16 C-9.95346486 15.2605739 -13.35959672 13.44175903 -16.9375 11.6875 C-37.54044925 1.87716841 -60.86681034 -1.50686199 -83 5 C-92.23245452 8.3888539 -99.54580483 13.32579239 -104.15234375 22.2265625 C-107.09829533 29.91047308 -107.03504625 38.1694554 -104.0859375 45.83984375 C-99.04222394 55.8728423 -90.09726916 60.0195487 -79.83203125 63.421875 C-71.50341891 66.04663904 -63.06365952 68.25448247 -54.61465454 70.45323181 C-8.74775749 82.39900369 -8.74775749 82.39900369 3.6640625 101.5703125 C8.80746992 111.6559885 8.54472239 124.60505237 6.265625 135.515625 C4.35328481 141.12724621 1.44639361 146.19206817 -2 151 C-2.721875 152.010625 -3.44375 153.02125 -4.1875 154.0625 C-14.08527978 165.40948742 -30.39871659 171.37947788 -45 173 C-74.12030322 174.92343181 -102.88982364 172.08263227 -127 154 C-128.35966012 152.69352386 -129.70135984 151.36714641 -131 150 C-129.35433477 144.31497465 -126.70967216 139.23318364 -124 134 C-120.88191019 135.44565982 -118.25937366 137.20806349 -115.5 139.25 C-99.57560111 150.48113763 -82.06136282 155.40731626 -62.75 155.3125 C-61.55431396 155.30686035 -60.35862793 155.3012207 -59.12670898 155.29541016 C-45.48556797 155.1076923 -32.01289154 153.41383014 -21.0625 144.40625 C-15.99459608 139.03427184 -12.85892784 131.82241967 -12.5625 124.4375 C-12.79160309 119.64330581 -14.26795584 115.43782459 -16 111 C-16.309375 110.030625 -16.61875 109.06125 -16.9375 108.0625 C-18.29444596 105.42842843 -19.29985935 105.16762839 -22 104 C-22.9075 103.2575 -23.815 102.515 -24.75 101.75 C-28.26204761 99.221141 -32.01263695 97.64681412 -36.04296875 96.140625 C-37.08698097 95.75040161 -37.08698097 95.75040161 -38.15208435 95.35229492 C-47.58511395 91.93793455 -57.34210417 89.73049076 -67.0847168 87.39550781 C-87.09548094 82.57007939 -109.74526257 76.71911629 -121.6640625 58.44921875 C-127.48302487 47.50888891 -128.80556025 35.22607344 -125.75 23.1875 C-121.03877967 8.11595719 -112.03557969 -1.24011787 -98.25 -8.6875 C-67.10295143 -23.54979247 -28.82639252 -16.61587742 0 0 Z " fill="#343434" transform="translate(1720,1271)"/>
<path d="M0 0 C49.83 0 99.66 0 151 0 C151 5.61 151 11.22 151 17 C129.22 17 107.44 17 85 17 C85 72.77 85 128.54 85 186 C78.4 186 71.8 186 65 186 C65 130.23 65 74.46 65 17 C43.55 17 22.1 17 0 17 C0 11.39 0 5.78 0 0 Z " fill="#323232" transform="translate(953,1257)"/>
<path d="M0 0 C49.83 0 99.66 0 151 0 C151 5.61 151 11.22 151 17 C129.22 17 107.44 17 85 17 C85 72.77 85 128.54 85 186 C78.4 186 71.8 186 65 186 C65 130.23 65 74.46 65 17 C43.55 17 22.1 17 0 17 C0 11.39 0 5.78 0 0 Z " fill="#333333" transform="translate(1166,1029)"/>
<path d="M0 0 C6.6 0 13.2 0 20 0 C20 55.44 20 110.88 20 168 C54.32 168 88.64 168 124 168 C124 173.94 124 179.88 124 186 C83.08 186 42.16 186 0 186 C0 124.62 0 63.24 0 0 Z " fill="#343434" transform="translate(646,1257)"/>
<path d="M0 0 C0.66 0 1.32 0 2 0 C12.84605681 23.90254853 23.65521943 47.82016901 34.26400757 71.8291626 C35.90661448 75.54473591 37.56276393 79.2537452 39.23291016 82.95703125 C39.60366165 83.78223267 39.97441315 84.60743408 40.35639954 85.4576416 C41.0771592 87.06113725 41.80083622 88.6633255 42.52775574 90.26403809 C45 95.77546217 45 95.77546217 45 98 C15.96 98 -13.08 98 -43 98 C-41.00319893 92.00959678 -38.9766884 86.40333878 -36.3671875 80.70703125 C-36.01779617 79.93451019 -35.66840485 79.16198914 -35.3084259 78.36605835 C-34.16791746 75.84638617 -33.02142621 73.32948438 -31.875 70.8125 C-30.66586508 68.14468088 -29.45829995 65.47615443 -28.25071716 62.80763245 C-27.42064988 60.97376429 -26.59004772 59.14013814 -25.75892639 57.30674744 C-21.36687387 47.61592117 -17.02529342 37.90270434 -12.6875 28.1875 C-8.48578449 18.7790508 -4.28281955 9.37192147 0 0 Z " fill="#FEFEFE" transform="translate(770,1051)"/>
<path d="M0 0 C6.6 0 13.2 0 20 0 C20 61.38 20 122.76 20 186 C13.4 186 6.8 186 0 186 C0 124.62 0 63.24 0 0 Z " fill="#333333" transform="translate(1123,1257)"/>
<path d="M0 0 C6.6 0 13.2 0 20 0 C20 61.38 20 122.76 20 186 C13.4 186 6.8 186 0 186 C0 124.62 0 63.24 0 0 Z " fill="#353535" transform="translate(1127,1029)"/>
</svg>
